# Blender v2.79 (sub 0) OBJ File: 'platforms.blend'
# www.blender.org
mtllib 30DegPlatform.mtl
v -3.964102 1.133975 -1.000000
v 2.964102 -2.866025 -1.000000
v 2.964102 -2.866025 1.000000
v -3.964102 1.133975 1.000000
v -2.964101 2.866025 -1.000000
v 3.964102 -1.133975 -1.000000
v 3.964101 -1.133974 1.000000
v -2.964102 2.866025 1.000000
v -3.714102 1.566987 -1.000000
v -3.214101 2.433012 -1.000000
v 3.214102 -2.433013 -1.000000
v 3.714102 -1.566987 -1.000000
v 3.214101 -2.433012 1.000000
v 3.714101 -1.566987 1.000000
v -3.714102 1.566988 1.000000
v -3.214102 2.433013 1.000000
v -3.589102 1.783494 -0.500000
v -3.464102 2.000000 -0.500000
v -3.339101 2.216506 -0.500000
v 3.339101 -2.216506 -0.500000
v 3.464101 -2.000000 -0.500000
v 3.589101 -1.783494 -0.500000
v 3.339102 -2.216506 0.500000
v 3.464102 -2.000000 0.500000
v 3.589101 -1.783493 0.500000
v -3.589102 1.783494 0.500000
v -3.464102 2.000000 0.500000
v -3.339102 2.216506 0.500000
vt 0.000000 0.000000
vt 1.000000 1.000000
vt 0.000000 1.000000
vt 0.000000 0.000000
vt 1.000000 1.000000
vt 0.000000 1.000000
vt 1.000000 0.000000
vt 0.000000 1.000000
vt 0.000000 0.000000
vt 1.000000 0.000000
vt 0.000000 1.000000
vt 0.000000 0.000000
vt 1.000000 0.000000
vt 0.000000 0.000000
vt 1.000000 0.000000
vt 0.000000 1.000000
vt 0.000000 0.000000
vt 0.000000 1.000000
vt 1.000000 0.000000
vt 0.000000 1.000000
vt 1.000000 0.000000
vt 0.000000 1.000000
vt 0.000000 0.000000
vt 1.000000 0.000000
vt 0.000000 1.000000
vt 0.000000 0.000000
vt 1.000000 0.000000
vt 0.000000 0.000000
vt 1.000000 0.000000
vt 0.000000 1.000000
vt 0.000000 0.000000
vt 0.000000 0.000000
vt 1.000000 0.000000
vt 0.000000 1.000000
vt 0.000000 0.000000
vt 1.000000 1.000000
vt 0.000000 0.000000
vt 0.000000 0.000000
vt 1.000000 0.000000
vt 0.000000 1.000000
vt 0.000000 0.000000
vt 0.000000 1.000000
vt 0.000000 0.000000
vt 1.000000 0.000000
vt 0.000000 1.000000
vt 0.000000 0.000000
vt 0.000000 1.000000
vt 0.000000 0.000000
vt 1.000000 0.000000
vt 1.000000 0.000000
vt 0.000000 1.000000
vt 0.000000 0.000000
vt 0.000000 1.000000
vt 0.000000 0.000000
vt 1.000000 0.000000
vt 1.000000 0.000000
vt 1.000000 1.000000
vt 1.000000 1.000000
vt 1.000000 1.000000
vt 1.000000 1.000000
vt 1.000000 1.000000
vt 1.000000 1.000000
vt 1.000000 1.000000
vt 1.000000 1.000000
vt 1.000000 1.000000
vt 1.000000 1.000000
vt 1.000000 1.000000
vt 1.000000 1.000000
vt 1.000000 1.000000
vt 1.000000 1.000000
vt 1.000000 1.000000
vt 1.000000 1.000000
vt 1.000000 1.000000
vn -0.5000 -0.8660 0.0000
vn 0.5000 0.8660 0.0000
vn 0.0000 -0.0000 -1.0000
vn 0.0000 0.0000 1.0000
vn 0.4472 0.7746 -0.4472
vn -0.4472 -0.7746 0.4472
vn 0.4472 0.7746 0.4472
vn -0.4472 -0.7746 -0.4472
vn 0.8660 -0.5000 0.0000
vn -0.8660 0.5000 -0.0000
usemtl Material
s off
f 1/1/1 3/2/1 4/3/1
f 5/4/2 7/5/2 6/6/2
f 5/7/3 12/8/3 10/9/3
f 7/10/4 16/11/4 14/12/4
f 13/13/4 4/3/4 3/14/4
f 9/15/5 20/16/5 11/17/5
f 9/15/3 2/18/3 1/1/3
f 16/19/6 25/20/6 14/12/6
f 24/21/4 26/22/4 23/23/4
f 25/24/4 27/25/4 24/26/4
f 18/27/3 20/16/3 17/28/3
f 19/29/3 21/30/3 18/31/3
f 13/13/7 26/22/7 15/32/7
f 12/33/8 19/34/8 10/9/8
f 6/35/9 14/36/9 12/8/9
f 25/24/9 12/8/9 14/12/9
f 25/24/9 21/30/9 22/37/9
f 24/21/9 20/16/9 21/38/9
f 11/39/9 23/40/9 13/41/9
f 11/39/9 3/42/9 2/43/9
f 10/44/10 8/45/10 5/4/10
f 16/19/10 19/34/10 28/46/10
f 18/27/10 28/47/10 19/48/10
f 17/49/10 27/25/10 18/31/10
f 15/50/10 17/51/10 9/52/10
f 15/50/10 1/53/10 4/54/10
f 1/1/1 2/55/1 3/2/1
f 5/4/2 8/56/2 7/5/2
f 5/7/3 6/57/3 12/8/3
f 7/10/4 8/58/4 16/11/4
f 13/13/4 15/59/4 4/3/4
f 9/15/5 17/60/5 20/16/5
f 9/15/3 11/61/3 2/18/3
f 16/19/6 28/62/6 25/20/6
f 24/21/4 27/63/4 26/22/4
f 25/24/4 28/62/4 27/25/4
f 18/27/3 21/64/3 20/16/3
f 19/29/3 22/65/3 21/30/3
f 13/13/7 23/66/7 26/22/7
f 12/33/8 22/65/8 19/34/8
f 6/35/9 7/10/9 14/36/9
f 25/24/9 22/65/9 12/8/9
f 25/24/9 24/67/9 21/30/9
f 24/21/9 23/66/9 20/16/9
f 11/39/9 20/68/9 23/40/9
f 11/39/9 13/69/9 3/42/9
f 10/44/10 16/70/10 8/45/10
f 16/19/10 10/71/10 19/34/10
f 18/27/10 27/63/10 28/47/10
f 17/49/10 26/72/10 27/25/10
f 15/50/10 26/72/10 17/51/10
f 15/50/10 9/73/10 1/53/10
