# Blender v2.79 (sub 0) OBJ File: 'Ladder.blend'
# www.blender.org
mtllib Ladder.mtl
o Cube
v 1.000000 -1.000000 -1.000000
v 1.000000 -1.000000 1.000000
v -0.000000 -1.000000 1.000000
v 0.000000 -1.000000 -1.000000
v 1.000000 9.000000 -0.999999
v 0.999999 9.000000 1.000001
v -0.000000 9.000000 1.000000
v 0.000000 9.000000 -1.000000
v 1.000000 1.000000 -1.000000
v 1.000000 3.000000 -1.000000
v 1.000000 5.000000 -1.000000
v 1.000000 7.000000 -1.000000
v 1.000000 1.000000 1.000000
v 1.000000 3.000000 1.000000
v 1.000000 5.000000 1.000000
v 1.000000 7.000000 1.000000
v -0.000000 1.000000 1.000000
v -0.000000 3.000000 1.000000
v -0.000000 5.000000 1.000000
v -0.000000 7.000000 1.000000
v 0.000000 1.000000 -1.000000
v 0.000000 3.000000 -1.000000
v 0.000000 5.000000 -1.000000
v 0.000000 7.000000 -1.000000
vt 0.272792 0.000143
vt 0.454558 0.000143
vt 0.454558 0.091026
vt 0.272792 0.091026
vt 0.181909 0.908974
vt 0.181909 0.999857
vt 0.000143 0.999857
vt 0.000143 0.908974
vt 0.181909 0.727208
vt 0.000143 0.727208
vt 0.272792 0.727207
vt 0.272792 0.908974
vt 0.181909 0.908974
vt 0.181909 0.727207
vt 0.454558 0.818091
vt 0.454558 0.999857
vt 0.272792 0.999857
vt 0.272792 0.818091
vt 0.454558 0.272792
vt 0.454558 0.091026
vt 0.545441 0.091026
vt 0.545441 0.272792
vt 0.454558 0.999857
vt 0.454558 0.818091
vt 0.545441 0.818091
vt 0.545441 0.999857
vt 0.454558 0.636325
vt 0.545441 0.636325
vt 0.454558 0.454558
vt 0.545441 0.454558
vt 0.454558 0.272792
vt 0.272792 0.272792
vt 0.454558 0.454558
vt 0.272792 0.454558
vt 0.454558 0.636325
vt 0.272792 0.636324
vt 0.272792 0.000143
vt 0.272792 0.181909
vt 0.181909 0.181909
vt 0.181909 0.000143
vt 0.272792 0.363675
vt 0.181909 0.363675
vt 0.272792 0.545441
vt 0.181909 0.545441
vt 0.181909 0.000143
vt 0.181909 0.181909
vt 0.000143 0.181909
vt 0.000143 0.000143
vt 0.181909 0.363675
vt 0.000143 0.363675
vt 0.181909 0.545441
vt 0.000143 0.545441
vn 0.0000 -1.0000 0.0000
vn 0.0000 1.0000 0.0000
vn 1.0000 0.0000 0.0000
vn -0.0000 -0.0000 1.0000
vn -1.0000 -0.0000 -0.0000
vn 0.0000 0.0000 -1.0000
usemtl Material
s off
f 1/1/1 2/2/1 3/3/1 4/4/1
f 5/5/2 8/6/2 7/7/2 6/8/2
f 12/9/3 5/5/3 6/8/3 16/10/3
f 16/11/4 6/12/4 7/13/4 20/14/4
f 20/15/5 7/16/5 8/17/5 24/18/5
f 9/19/6 1/20/6 4/21/6 21/22/6
f 5/23/6 12/24/6 24/25/6 8/26/6
f 12/24/6 11/27/6 23/28/6 24/25/6
f 11/27/6 10/29/6 22/30/6 23/28/6
f 10/29/6 9/19/6 21/22/6 22/30/6
f 3/3/5 17/31/5 21/32/5 4/4/5
f 17/31/5 18/33/5 22/34/5 21/32/5
f 18/33/5 19/35/5 23/36/5 22/34/5
f 19/35/5 20/15/5 24/18/5 23/36/5
f 2/37/4 13/38/4 17/39/4 3/40/4
f 13/38/4 14/41/4 18/42/4 17/39/4
f 14/41/4 15/43/4 19/44/4 18/42/4
f 15/43/4 16/11/4 20/14/4 19/44/4
f 1/45/3 9/46/3 13/47/3 2/48/3
f 9/46/3 10/49/3 14/50/3 13/47/3
f 10/49/3 11/51/3 15/52/3 14/50/3
f 11/51/3 12/9/3 16/10/3 15/52/3
