# Blender v2.79 (sub 0) OBJ File: ''
# www.blender.org
mtllib Ramp2x1Flipped.mtl
v -2.000000 -0.500000 -1.000000
v -2.000000 -0.500000 1.000000
v 2.000000 -1.500000 1.000000
v 1.999999 -1.500000 -1.000000
v -2.000001 1.500000 -1.000000
v -1.999999 1.500000 1.000001
v 2.000001 0.500000 1.000000
v 2.000000 0.500000 -1.000000
vt 0.000000 1.000000
vt 1.000000 0.000000
vt 0.000000 0.000000
vt 0.000000 1.000000
vt 1.000000 0.000000
vt 0.000000 0.000000
vt 0.000000 1.000000
vt 1.000000 0.000000
vt 0.000000 0.000000
vt 1.000000 1.000000
vt 1.000000 0.000000
vt 0.000000 0.000000
vt 1.000000 1.000000
vt 1.000000 0.000000
vt 0.000000 1.000000
vt 1.000000 0.000000
vt 1.000000 1.000000
vt 1.000000 1.000000
vt 0.000000 1.000000
vt 1.000000 1.000000
vn -0.2425 -0.9701 0.0000
vn 0.2425 0.9701 -0.0000
vn -1.0000 -0.0000 0.0000
vn 0.0000 -0.0000 1.0000
vn 1.0000 -0.0000 -0.0000
vn -0.0000 0.0000 -1.0000
usemtl Material
s off
f 4/1/1 2/2/1 1/3/1
f 6/4/2 8/5/2 5/6/2
f 2/7/3 5/8/3 1/3/3
f 2/9/4 7/10/4 6/11/4
f 3/12/5 8/13/5 7/14/5
f 8/15/6 1/16/6 5/6/6
f 4/1/1 3/17/1 2/2/1
f 6/4/2 7/10/2 8/5/2
f 2/7/3 6/18/3 5/8/3
f 2/9/4 3/19/4 7/10/4
f 3/12/5 4/1/5 8/13/5
f 8/15/6 4/20/6 1/16/6
