# Blender v2.79 (sub 0) OBJ File: 'Pinball2.blend'
# www.blender.org
mtllib Bumper1.mtl
o Cylinder_Cylinder.001
v 0.000000 0.000000 -0.750000
v 0.000000 1.000000 -0.375000
v 0.287013 0.000000 -0.692910
v 0.143506 1.000000 -0.346455
v 0.530330 0.000000 -0.530330
v 0.265165 1.000000 -0.265165
v 0.692910 0.000000 -0.287013
v 0.346455 1.000000 -0.143506
v 0.750000 0.000000 0.000000
v 0.375000 1.000000 0.000000
v 0.692910 0.000000 0.287013
v 0.346455 1.000000 0.143506
v 0.530330 0.000000 0.530330
v 0.265165 1.000000 0.265165
v 0.287013 0.000000 0.692910
v 0.143506 1.000000 0.346455
v 0.000000 0.000000 0.750000
v 0.000000 1.000000 0.375000
v -0.287012 0.000000 0.692910
v -0.143506 1.000000 0.346455
v -0.530330 0.000000 0.530330
v -0.265165 1.000000 0.265165
v -0.692910 0.000000 0.287013
v -0.346455 1.000000 0.143506
v -0.750000 0.000000 -0.000000
v -0.375000 1.000000 -0.000000
v -0.692910 0.000000 -0.287013
v -0.346455 1.000000 -0.143506
v -0.530330 0.000000 -0.530330
v -0.265165 1.000000 -0.265165
v -0.287012 0.000000 -0.692910
v -0.143506 1.000000 -0.346455
v 0.000000 0.900000 -0.750000
v 0.287013 0.900000 -0.692910
v 0.530330 0.900000 -0.530330
v 0.692910 0.900000 -0.287013
v 0.750000 0.900000 0.000000
v 0.692910 0.900000 0.287013
v 0.530330 0.900000 0.530330
v 0.287013 0.900000 0.692910
v 0.000000 0.900000 0.750000
v -0.287012 0.900000 0.692910
v -0.530330 0.900000 0.530330
v -0.692910 0.900000 0.287013
v -0.750000 0.900000 -0.000000
v -0.692910 0.900000 -0.287013
v -0.530330 0.900000 -0.530330
v -0.287012 0.900000 -0.692910
v 0.219433 0.458724 -0.529757
v 0.219433 0.229362 -0.529757
v 0.405458 0.458724 -0.405458
v 0.405458 0.229362 -0.405458
v 0.529757 0.458724 -0.219433
v 0.529757 0.229362 -0.219433
v 0.573405 0.458724 0.000000
v 0.573405 0.229362 0.000000
v 0.529757 0.458724 0.219433
v 0.529757 0.229362 0.219433
v 0.405458 0.458724 0.405458
v 0.405458 0.229362 0.405458
v 0.219433 0.458724 0.529757
v 0.219433 0.229362 0.529757
v 0.000000 0.458724 0.573405
v 0.000000 0.229362 0.573405
v -0.219432 0.458724 0.529757
v -0.219432 0.229362 0.529757
v -0.405458 0.458724 0.405459
v -0.405458 0.229362 0.405459
v -0.529757 0.458724 0.219433
v -0.529757 0.229362 0.219433
v -0.573405 0.458724 -0.000000
v -0.573405 0.229362 -0.000000
v -0.529757 0.458724 -0.219433
v -0.529757 0.229362 -0.219433
v -0.405458 0.458724 -0.405459
v -0.405458 0.229362 -0.405459
v -0.219432 0.458724 -0.529757
v -0.219432 0.229362 -0.529757
v 0.000000 0.229362 -0.573405
v 0.000000 0.458724 -0.573405
vt 1.000000 1.000000
vt 0.937500 0.750000
vt 1.000000 0.750000
vt 0.875000 1.000000
vt 0.875000 0.750000
vt 0.812500 0.750000
vt 0.812500 1.000000
vt 0.750000 0.750000
vt 0.750000 1.000000
vt 0.687500 0.750000
vt 0.687500 1.000000
vt 0.625000 0.750000
vt 0.625000 1.000000
vt 0.562500 0.750000
vt 0.562500 1.000000
vt 0.500000 0.750000
vt 0.500000 1.000000
vt 0.437500 0.750000
vt 0.437500 1.000000
vt 0.375000 0.750000
vt 0.375000 1.000000
vt 0.312500 0.750000
vt 0.312500 1.000000
vt 0.250000 0.750000
vt 0.250000 1.000000
vt 0.187500 0.750000
vt 0.187500 1.000000
vt 0.125000 0.750000
vt 0.080294 0.419706
vt 0.080294 0.080294
vt 0.419706 0.080294
vt 0.125000 1.000000
vt 0.062500 0.750000
vt 0.062500 1.000000
vt 0.000000 0.750000
vt 0.971731 0.341844
vt 0.841844 0.028269
vt 0.528269 0.158156
vt 0.000000 0.666667
vt 0.062500 0.666667
vt 0.125000 0.666667
vt 0.187500 0.666667
vt 0.250000 0.666667
vt 0.312500 0.666667
vt 0.375000 0.666667
vt 0.437500 0.666667
vt 0.500000 0.666667
vt 0.562500 0.666667
vt 0.625000 0.666667
vt 0.687500 0.666667
vt 0.750000 0.666667
vt 0.812500 0.666667
vt 0.875000 0.666667
vt 0.937500 0.666667
vt 1.000000 0.666667
vt 1.000000 0.500000
vt 0.937500 0.583333
vt 0.937500 0.500000
vt 1.000000 0.583333
vt 0.875000 0.500000
vt 0.875000 0.583333
vt 0.812500 0.500000
vt 0.812500 0.583333
vt 0.750000 0.500000
vt 0.750000 0.583333
vt 0.687500 0.500000
vt 0.687500 0.583333
vt 0.625000 0.583333
vt 0.625000 0.500000
vt 0.562500 0.500000
vt 0.562500 0.583333
vt 0.500000 0.500000
vt 0.500000 0.583333
vt 0.437500 0.500000
vt 0.437500 0.583333
vt 0.375000 0.500000
vt 0.375000 0.583333
vt 0.312500 0.500000
vt 0.312500 0.583333
vt 0.250000 0.500000
vt 0.250000 0.583333
vt 0.187500 0.500000
vt 0.187500 0.583333
vt 0.125000 0.500000
vt 0.125000 0.583333
vt 0.062500 0.500000
vt 0.062500 0.583333
vt 0.000000 0.500000
vt 0.000000 0.583333
vt 0.937500 1.000000
vt 0.419706 0.419706
vt 0.341844 0.471731
vt 0.250000 0.490000
vt 0.158156 0.471731
vt 0.028269 0.341844
vt 0.010000 0.250000
vt 0.028269 0.158156
vt 0.158156 0.028269
vt 0.250000 0.010000
vt 0.341844 0.028269
vt 0.471731 0.158156
vt 0.490000 0.250000
vt 0.471731 0.341844
vt 0.000000 1.000000
vt 0.658156 0.471731
vt 0.750000 0.490000
vt 0.841844 0.471731
vt 0.919706 0.419706
vt 0.990000 0.250000
vt 0.971731 0.158156
vt 0.919706 0.080294
vt 0.750000 0.010000
vt 0.658156 0.028269
vt 0.580294 0.080294
vt 0.510000 0.250000
vt 0.528269 0.341844
vt 0.580294 0.419706
vn 0.0512 0.9650 -0.2573
vn 0.1458 0.9650 -0.2181
vn 0.2181 0.9650 -0.1458
vn 0.2573 0.9650 -0.0512
vn 0.2573 0.9650 0.0512
vn 0.2181 0.9650 0.1458
vn 0.1458 0.9650 0.2181
vn 0.0512 0.9650 0.2573
vn -0.0512 0.9650 0.2573
vn -0.1458 0.9650 0.2181
vn -0.2181 0.9650 0.1458
vn -0.2573 0.9650 0.0512
vn -0.2573 0.9650 -0.0512
vn -0.2181 0.9650 -0.1458
vn 0.0000 1.0000 -0.0000
vn -0.1458 0.9650 -0.2181
vn -0.0512 0.9650 -0.2573
vn 0.0000 -1.0000 0.0000
vn -0.1816 -0.3654 -0.9130
vn -0.5172 -0.3654 -0.7740
vn -0.7740 -0.3654 -0.5172
vn -0.9130 -0.3654 -0.1816
vn -0.9130 -0.3654 0.1816
vn -0.7740 -0.3654 0.5172
vn -0.5172 -0.3654 0.7740
vn -0.1816 -0.3654 0.9130
vn 0.1816 -0.3654 0.9130
vn 0.5172 -0.3654 0.7740
vn 0.7740 -0.3654 0.5172
vn 0.9130 -0.3654 0.1816
vn 0.9130 -0.3654 -0.1816
vn 0.7740 -0.3654 -0.5172
vn 0.5172 -0.3654 -0.7740
vn 0.1816 -0.3654 -0.9130
vn 0.1557 0.6026 -0.7827
vn 0.1951 0.0000 -0.9808
vn 0.4434 0.6026 -0.6635
vn 0.5556 0.0000 -0.8315
vn 0.6635 0.6026 -0.4434
vn 0.8315 0.0000 -0.5556
vn 0.7827 0.6026 -0.1557
vn 0.9808 0.0000 -0.1951
vn 0.7827 0.6026 0.1557
vn 0.9808 0.0000 0.1951
vn 0.6635 0.6026 0.4434
vn 0.8315 0.0000 0.5556
vn 0.4434 0.6026 0.6635
vn 0.5556 0.0000 0.8315
vn 0.1557 0.6026 0.7827
vn 0.1951 0.0000 0.9808
vn -0.1557 0.6026 0.7827
vn -0.1951 0.0000 0.9808
vn -0.4434 0.6026 0.6635
vn -0.5556 0.0000 0.8315
vn -0.6635 0.6026 0.4434
vn -0.8315 0.0000 0.5556
vn -0.7827 0.6026 0.1557
vn -0.9808 0.0000 0.1951
vn -0.7827 0.6026 -0.1557
vn -0.9808 0.0000 -0.1951
vn -0.6635 0.6026 -0.4434
vn -0.8315 0.0000 -0.5556
vn -0.4434 0.6026 -0.6635
vn -0.5556 0.0000 -0.8315
vn -0.1557 0.6026 -0.7827
vn -0.1951 0.0000 -0.9808
vn -0.1458 0.9650 0.2182
usemtl None
s off
f 2/1/1 34/2/1 33/3/1
f 34/2/2 6/4/2 35/5/2
f 6/4/3 36/6/3 35/5/3
f 8/7/4 37/8/4 36/6/4
f 10/9/5 38/10/5 37/8/5
f 12/11/6 39/12/6 38/10/6
f 14/13/7 40/14/7 39/12/7
f 16/15/8 41/16/8 40/14/8
f 18/17/9 42/18/9 41/16/9
f 20/19/10 43/20/10 42/18/10
f 22/21/11 44/22/11 43/20/11
f 24/23/12 45/24/12 44/22/12
f 26/25/13 46/26/13 45/24/13
f 28/27/14 47/28/14 46/26/14
f 30/29/15 22/30/15 14/31/15
f 30/32/16 48/33/16 47/28/16
f 32/34/17 33/35/17 48/33/17
f 7/36/18 15/37/18 23/38/18
f 48/33/19 80/39/19 77/40/19
f 47/28/20 77/40/20 75/41/20
f 46/26/21 75/41/21 73/42/21
f 45/24/22 73/42/22 71/43/22
f 44/22/23 71/43/23 69/44/23
f 43/20/24 69/44/24 67/45/24
f 65/46/25 43/20/25 67/45/25
f 41/16/26 65/46/26 63/47/26
f 40/14/27 63/47/27 61/48/27
f 39/12/28 61/48/28 59/49/28
f 38/10/29 59/49/29 57/50/29
f 37/8/30 57/50/30 55/51/30
f 36/6/31 55/51/31 53/52/31
f 51/53/32 36/6/32 53/52/32
f 49/54/33 35/5/33 51/53/33
f 80/55/34 34/2/34 49/54/34
f 1/56/35 50/57/35 3/58/35
f 79/59/36 49/54/36 50/57/36
f 50/57/37 5/60/37 3/58/37
f 49/54/38 52/61/38 50/57/38
f 52/61/39 7/62/39 5/60/39
f 51/53/40 54/63/40 52/61/40
f 54/63/41 9/64/41 7/62/41
f 53/52/42 56/65/42 54/63/42
f 56/65/43 11/66/43 9/64/43
f 55/51/44 58/67/44 56/65/44
f 11/66/45 60/68/45 13/69/45
f 57/50/46 60/68/46 58/67/46
f 60/68/47 15/70/47 13/69/47
f 59/49/48 62/71/48 60/68/48
f 62/71/49 17/72/49 15/70/49
f 61/48/50 64/73/50 62/71/50
f 64/73/51 19/74/51 17/72/51
f 63/47/52 66/75/52 64/73/52
f 66/75/53 21/76/53 19/74/53
f 65/46/54 68/77/54 66/75/54
f 68/77/55 23/78/55 21/76/55
f 67/45/56 70/79/56 68/77/56
f 70/79/57 25/80/57 23/78/57
f 69/44/58 72/81/58 70/79/58
f 72/81/59 27/82/59 25/80/59
f 71/43/60 74/83/60 72/81/60
f 74/83/61 29/84/61 27/82/61
f 73/42/62 76/85/62 74/83/62
f 76/85/63 31/86/63 29/84/63
f 75/41/64 78/87/64 76/85/64
f 78/87/65 1/88/65 31/86/65
f 77/40/66 79/89/66 78/87/66
f 2/1/1 4/90/1 34/2/1
f 34/2/2 4/90/2 6/4/2
f 6/4/3 8/7/3 36/6/3
f 8/7/4 10/9/4 37/8/4
f 10/9/5 12/11/5 38/10/5
f 12/11/6 14/13/6 39/12/6
f 14/13/7 16/15/7 40/14/7
f 16/15/8 18/17/8 41/16/8
f 18/17/9 20/19/9 42/18/9
f 20/19/67 22/21/67 43/20/67
f 22/21/11 24/23/11 44/22/11
f 24/23/12 26/25/12 45/24/12
f 26/25/13 28/27/13 46/26/13
f 28/27/14 30/32/14 47/28/14
f 6/91/15 4/92/15 2/93/15
f 2/93/15 32/94/15 30/29/15
f 30/29/15 28/95/15 26/96/15
f 26/96/15 24/97/15 30/29/15
f 24/97/15 22/30/15 30/29/15
f 22/30/15 20/98/15 18/99/15
f 18/99/15 16/100/15 14/31/15
f 14/31/15 12/101/15 10/102/15
f 10/102/15 8/103/15 14/31/15
f 8/103/15 6/91/15 14/31/15
f 6/91/15 2/93/15 30/29/15
f 22/30/15 18/99/15 14/31/15
f 6/91/15 30/29/15 14/31/15
f 30/32/16 32/34/16 48/33/16
f 32/34/17 2/104/17 33/35/17
f 31/105/18 1/106/18 3/107/18
f 3/107/18 5/108/18 7/36/18
f 7/36/18 9/109/18 11/110/18
f 11/110/18 13/111/18 15/37/18
f 15/37/18 17/112/18 19/113/18
f 19/113/18 21/114/18 23/38/18
f 23/38/18 25/115/18 27/116/18
f 27/116/18 29/117/18 23/38/18
f 29/117/18 31/105/18 23/38/18
f 31/105/18 3/107/18 7/36/18
f 7/36/18 11/110/18 15/37/18
f 15/37/18 19/113/18 23/38/18
f 31/105/18 7/36/18 23/38/18
f 48/33/19 33/35/19 80/39/19
f 47/28/20 48/33/20 77/40/20
f 46/26/21 47/28/21 75/41/21
f 45/24/22 46/26/22 73/42/22
f 44/22/23 45/24/23 71/43/23
f 43/20/24 44/22/24 69/44/24
f 65/46/25 42/18/25 43/20/25
f 41/16/26 42/18/26 65/46/26
f 40/14/27 41/16/27 63/47/27
f 39/12/28 40/14/28 61/48/28
f 38/10/29 39/12/29 59/49/29
f 37/8/30 38/10/30 57/50/30
f 36/6/31 37/8/31 55/51/31
f 51/53/32 35/5/32 36/6/32
f 49/54/33 34/2/33 35/5/33
f 80/55/34 33/3/34 34/2/34
f 1/56/35 79/59/35 50/57/35
f 79/59/36 80/55/36 49/54/36
f 50/57/37 52/61/37 5/60/37
f 49/54/38 51/53/38 52/61/38
f 52/61/39 54/63/39 7/62/39
f 51/53/40 53/52/40 54/63/40
f 54/63/41 56/65/41 9/64/41
f 53/52/42 55/51/42 56/65/42
f 56/65/43 58/67/43 11/66/43
f 55/51/44 57/50/44 58/67/44
f 11/66/45 58/67/45 60/68/45
f 57/50/46 59/49/46 60/68/46
f 60/68/47 62/71/47 15/70/47
f 59/49/48 61/48/48 62/71/48
f 62/71/49 64/73/49 17/72/49
f 61/48/50 63/47/50 64/73/50
f 64/73/51 66/75/51 19/74/51
f 63/47/52 65/46/52 66/75/52
f 66/75/53 68/77/53 21/76/53
f 65/46/54 67/45/54 68/77/54
f 68/77/55 70/79/55 23/78/55
f 67/45/56 69/44/56 70/79/56
f 70/79/57 72/81/57 25/80/57
f 69/44/58 71/43/58 72/81/58
f 72/81/59 74/83/59 27/82/59
f 71/43/60 73/42/60 74/83/60
f 74/83/61 76/85/61 29/84/61
f 73/42/62 75/41/62 76/85/62
f 76/85/63 78/87/63 31/86/63
f 75/41/64 77/40/64 78/87/64
f 78/87/65 79/89/65 1/88/65
f 77/40/66 80/39/66 79/89/66
