# Blender v2.79 (sub 0) OBJ File: 'Pinball2.blend'
# www.blender.org
mtllib InnerWalls.mtl
o InnerWalls_Circle
v 11.375000 1.200000 -0.000007
v 1.875003 0.000000 7.600000
v 3.728361 0.000000 7.453968
v 5.510497 0.000000 7.021483
v 7.152922 0.000000 6.319167
v 8.592518 0.000000 5.374008
v 9.773965 0.000000 4.222329
v 10.651858 0.000000 2.908388
v 11.192461 0.000000 1.482680
v 11.375000 0.000000 -0.000007
v 11.192457 0.000000 -1.482694
v 10.651851 0.000000 -2.908402
v 9.773954 0.000000 -4.222342
v 8.592505 0.000000 -5.374018
v 7.152905 0.000000 -6.319175
v 5.510479 0.000000 -7.021489
v 3.728343 0.000000 -7.453970
v 10.651858 1.200000 2.908388
v 11.192461 1.200000 1.482680
v 9.773965 1.200000 4.222329
v 1.874998 0.000000 -7.600000
v 8.592518 1.200000 5.374008
v 7.152922 1.200000 6.319167
v 5.510497 1.200000 7.021483
v 3.728361 1.200000 7.453968
v 1.875003 1.200000 7.600000
v -9.260000 0.950000 5.454876
v -9.260000 0.000000 5.454876
v 11.192457 1.200000 -1.482694
v 10.651851 1.200000 -2.908402
v 9.773954 1.200000 -4.222342
v 8.592505 1.200000 -5.374018
v 7.152905 1.200000 -6.319175
v 5.510479 1.200000 -7.021489
v 3.728343 1.200000 -7.453970
v 1.874998 1.200000 -7.600000
v 11.375000 1.200000 7.600000
v 11.375001 1.200000 -7.600001
v -12.375000 0.000000 6.850000
v -12.375000 1.200000 6.850000
v -12.375000 0.000000 6.350000
v -12.375000 1.200000 6.350000
v 1.875003 0.000000 6.850000
v 1.875003 1.200000 6.850000
v 1.875003 0.000000 6.350000
v 1.875003 1.200000 6.350000
v -10.375000 0.000000 -7.600001
v -10.375000 1.200000 -7.600001
v -12.375000 1.200000 -2.950001
v -12.375000 1.200000 1.700000
v -12.375000 0.000000 1.700000
v -12.375000 0.000000 -2.950001
v -10.375000 1.200000 6.350000
v -10.375000 0.000000 6.350000
v -10.374999 1.200000 6.850000
v -2.125002 1.200000 4.497663
v -0.125002 1.200000 4.497663
v -10.375000 0.000000 6.850000
v -12.375000 1.200000 -7.600001
v -10.875000 0.950000 -2.950001
v -10.875000 0.950000 1.700000
v -10.875000 0.000000 1.700000
v -10.875000 0.000000 -2.950001
v -9.175000 0.000000 -6.902501
v -9.175000 0.950000 -6.902501
v -9.175000 0.000000 5.652501
v -9.175000 0.950000 5.652501
v -8.975000 0.000000 5.652501
v -10.675001 0.000000 1.700000
v -8.975000 0.950000 -6.902501
v -10.675001 0.950000 -2.950001
v -10.675001 0.950000 1.700000
v -10.675001 0.000000 -2.950001
v -8.975000 0.000000 -6.902501
v -8.975000 0.950000 5.652501
v -9.060000 0.000000 5.454875
v -9.060000 0.950000 5.454875
v -9.260000 0.950000 -6.704876
v -9.260000 0.000000 -6.704876
v -9.060000 0.950000 -6.704876
v -9.060000 0.000000 -6.704876
v -5.975000 0.000000 5.652501
v -6.060000 0.000000 5.454875
v -6.060000 0.000000 -6.704876
v -5.975000 0.000000 -6.902501
v -5.975000 0.950000 -6.902501
v -6.060000 0.950000 5.454875
v -5.975000 0.950000 5.652501
v -6.060000 0.950000 -6.704876
v -4.125001 0.000000 -7.600000
v -4.125001 1.200000 -7.600000
v -2.125001 0.000000 -5.548519
v -0.125002 0.000000 -5.548519
v -0.125002 1.200000 -5.548519
v -2.125002 1.200000 -5.548519
v -0.125002 0.000000 4.497663
v -2.125001 0.000000 4.497663
v -4.125001 1.200000 6.350000
v -4.125001 0.000000 6.350000
v 1.875003 1.200000 6.350000
v 1.875003 0.000000 6.350000
vt 0.222769 0.082363
vt 0.358086 0.061080
vt 0.260402 0.128433
vt 0.177828 0.044664
vt 0.127629 0.016807
vt 0.076418 0.000135
vt 0.289597 0.181291
vt 0.309177 0.239455
vt 0.317920 0.300856
vt 0.315369 0.359983
vt 0.358086 0.689019
vt 0.317071 0.421966
vt 0.306251 0.487173
vt 0.282725 0.550479
vt 0.247297 0.609094
vt 0.201248 0.661179
vt 0.145728 0.704885
vt 0.082513 0.738087
vt 0.017399 0.758163
vt 0.257738 0.473419
vt 0.236889 0.527750
vt 0.190813 0.113242
vt 0.222848 0.153249
vt 1.000000 0.000000
vt 0.000000 1.000000
vt 0.000000 0.000000
vt 0.205874 0.577950
vt 1.000000 0.000000
vt 0.000000 1.000000
vt 0.000000 0.000000
vt 0.247435 0.199158
vt 0.165582 0.622352
vt 0.061276 0.687482
vt 0.000135 0.708917
vt 0.263474 0.249619
vt 0.117048 0.659242
vt 0.270325 0.303482
vt 1.000000 0.000000
vt 0.000000 1.000000
vt 0.000000 0.000000
vt 0.270044 0.359756
vt 0.063022 0.037154
vt 0.109130 0.055204
vt 0.000000 0.000000
vt 1.000000 1.000000
vt 0.000000 1.000000
vt 0.268279 0.416736
vt 0.152435 0.080349
vt 0.020311 0.763896
vt 0.000135 0.758432
vt 0.017400 0.767341
vt 0.882328 0.975441
vt 0.876757 0.977706
vt 0.869276 0.994613
vt 0.049505 0.763896
vt 0.888532 0.999865
vt 0.043585 0.780839
vt 0.047306 0.762044
vt 0.044879 0.780198
vt 0.358355 0.000135
vt 0.560483 0.049458
vt 0.358355 0.049458
vt 0.560483 0.223694
vt 0.358355 0.174370
vt 0.560483 0.174370
vt 0.010705 0.765209
vt 0.560483 0.111914
vt 0.379753 0.174101
vt 0.358355 0.111914
vt 0.539086 0.111645
vt 1.000000 0.000000
vt 0.000000 1.000000
vt 0.000000 0.000000
vt 1.000000 0.000000
vt 0.000000 1.000000
vt 0.000000 0.000000
vt 0.000000 0.000000
vt 1.000000 1.000000
vt 0.000000 1.000000
vt 1.000000 0.000000
vt 0.000000 1.000000
vt 0.000000 0.000000
vt 0.000000 1.000000
vt 0.000000 0.000000
vt 0.000000 1.000000
vt 0.000000 0.000000
vt 1.000000 0.000000
vt 0.000000 1.000000
vt 0.000000 0.000000
vt 1.000000 1.000000
vt 0.000000 1.000000
vt 1.000000 0.000000
vt 0.000000 1.000000
vt 0.000000 0.000000
vt 1.000000 0.000000
vt 0.000000 1.000000
vt 0.000000 0.000000
vt 1.000000 0.000000
vt 0.000000 1.000000
vt 1.000000 1.000000
vt 1.000000 0.000000
vt 0.000000 1.000000
vt 0.000000 0.000000
vt 0.000000 0.000000
vt 1.000000 1.000000
vt 0.000000 1.000000
vt 1.000000 0.000000
vt 0.000000 0.000000
vt 1.000000 0.000000
vt 0.000000 1.000000
vt 1.000000 0.000000
vt 0.000000 1.000000
vt 0.000000 0.000000
vt 1.000000 0.000000
vt 0.000000 0.000000
vt 0.000000 0.000000
vt 1.000000 1.000000
vt 1.000000 0.000000
vt 0.000000 1.000000
vt 0.000000 0.000000
vt 1.000000 0.000000
vt 0.000000 1.000000
vt 0.000000 0.000000
vt 1.000000 0.000000
vt 0.000000 1.000000
vt 0.000000 0.000000
vt 1.000000 0.000000
vt 0.000000 1.000000
vt 0.000000 0.000000
vt 1.000000 0.000000
vt 0.000000 1.000000
vt 0.000000 0.000000
vt 0.017399 0.758163
vt 0.000135 0.708917
vt 0.000135 0.708917
vt 0.000135 0.708917
vt 0.017399 0.758163
vt 0.017399 0.758163
vt 0.000135 0.708917
vt 0.017399 0.758163
vt 0.000135 0.708917
vt 0.000135 0.708917
vt 0.017399 0.758163
vt 0.000135 0.708917
vt 0.017399 0.758163
vt 0.017399 0.758163
vt 1.000000 1.000000
vt 1.000000 1.000000
vt 0.560483 0.000135
vt 0.358355 0.223694
vt 1.000000 1.000000
vt 1.000000 1.000000
vt 1.000000 0.000000
vt 1.000000 1.000000
vt 1.000000 1.000000
vt 1.000000 1.000000
vt 1.000000 1.000000
vt 1.000000 0.000000
vt 1.000000 1.000000
vt 1.000000 1.000000
vt 1.000000 1.000000
vt 1.000000 0.000000
vt 1.000000 1.000000
vt 1.000000 1.000000
vt 1.000000 1.000000
vt 1.000000 1.000000
vt 1.000000 0.000000
vt 1.000000 1.000000
vt 1.000000 1.000000
vt 1.000000 1.000000
vn 0.0000 1.0000 0.0000
vn -0.8315 0.0000 0.5555
vn -0.5488 0.0000 -0.8359
vn -0.9186 0.0000 0.3951
vn -0.6980 0.0000 0.7161
vn 0.9186 0.0000 -0.3951
vn -0.6980 0.0000 -0.7161
vn -0.5488 0.0000 0.8359
vn -0.0785 0.0000 0.9969
vn -0.8315 0.0000 -0.5555
vn -0.3932 0.0000 0.9195
vn -0.9350 0.0000 -0.3545
vn -0.2358 0.0000 0.9718
vn -0.9925 0.0000 -0.1222
vn -0.0786 0.0000 -0.9969
vn 0.0000 -1.0000 0.0000
vn -0.9925 0.0000 0.1222
vn -0.2358 0.0000 -0.9718
vn -0.9350 0.0000 0.3546
vn -0.3932 0.0000 -0.9195
vn -1.0000 0.0000 0.0000
vn 1.0000 0.0000 0.0000
vn 0.0000 0.0000 -1.0000
vn 0.0000 0.0000 1.0000
vn 0.9186 0.0000 0.3951
vn -0.9186 0.0000 -0.3951
vn -0.7160 0.0000 0.6981
vn 0.7160 0.0000 0.6981
vn 0.6795 0.0000 -0.7337
vn -0.6795 0.0000 -0.7337
vn -0.0785 0.0000 -0.9969
usemtl Material.002
s off
f 23/1/1 37/2/1 22/3/1
f 24/4/1 37/2/1 23/1/1
f 25/5/1 37/2/1 24/4/1
f 26/6/1 37/2/1 25/5/1
f 22/3/1 37/2/1 20/7/1
f 20/7/1 37/2/1 18/8/1
f 18/8/1 37/2/1 19/9/1
f 19/9/1 37/2/1 1/10/1
f 1/10/1 38/11/1 29/12/1
f 29/12/1 38/11/1 30/13/1
f 30/13/1 38/11/1 31/14/1
f 31/14/1 38/11/1 32/15/1
f 32/15/1 38/11/1 33/16/1
f 33/16/1 38/11/1 34/17/1
f 34/17/1 38/11/1 35/18/1
f 36/19/1 35/18/1 38/11/1
f 12/20/2 31/14/2 13/21/2
f 5/22/3 22/3/3 6/23/3
f 28/24/4 61/25/4 62/26/4
f 13/21/5 32/15/5 14/27/5
f 72/28/6 76/29/6 69/30/6
f 6/23/7 20/7/7 7/31/7
f 14/27/8 33/16/8 15/32/8
f 17/33/9 36/19/9 21/34/9
f 7/31/10 18/8/10 8/35/10
f 15/32/11 34/17/11 16/36/11
f 8/35/12 19/9/12 9/37/12
f 16/36/13 35/18/13 17/33/13
f 27/38/1 72/39/1 61/40/1
f 9/37/14 1/10/14 10/41/14
f 2/42/15 25/5/15 3/43/15
f 66/44/16 76/45/16 68/46/16
f 10/41/17 29/12/17 11/47/17
f 3/43/18 24/4/18 4/48/18
f 11/47/19 30/13/19 12/20/19
f 4/48/20 23/1/20 5/22/20
f 42/49/21 39/50/21 40/51/21
f 43/52/22 46/53/22 44/54/22
f 53/55/1 44/54/1 46/53/1
f 53/55/23 45/56/23 54/57/23
f 54/57/16 43/52/16 58/58/16
f 55/59/24 43/52/24 44/54/24
f 52/60/25 48/61/25 49/62/25
f 50/63/6 54/64/6 51/65/6
f 40/51/24 58/58/24 55/59/24
f 41/66/16 58/58/16 39/50/16
f 42/49/23 54/57/23 41/66/23
f 40/51/1 53/55/1 42/49/1
f 50/67/1 42/68/1 53/69/1
f 49/62/1 48/61/1 59/70/1
f 65/71/26 79/72/26 78/73/26
f 66/74/4 27/75/4 28/76/4
f 68/77/16 83/78/16 82/79/16
f 81/80/24 89/81/24 80/82/24
f 66/74/24 75/83/24 67/84/24
f 65/71/23 74/85/23 64/86/23
f 63/87/24 71/88/24 60/89/24
f 78/73/1 71/90/1 80/91/1
f 67/92/1 77/93/1 27/94/1
f 64/95/16 81/96/16 79/97/16
f 61/98/23 69/99/23 62/26/23
f 28/76/16 69/100/16 76/29/16
f 79/101/16 73/102/16 63/103/16
f 65/104/1 80/105/1 70/106/1
f 73/107/25 80/91/25 71/108/25
f 78/109/26 63/110/26 60/89/26
f 84/111/25 86/112/25 89/113/25
f 87/114/6 82/79/6 83/115/6
f 70/116/1 89/117/1 86/112/1
f 68/118/24 88/119/24 75/120/24
f 77/121/23 83/122/23 76/123/23
f 70/124/23 85/125/23 74/126/23
f 75/127/1 87/128/1 77/129/1
f 74/130/16 84/131/16 81/132/16
f 95/133/27 90/134/27 92/135/27
f 36/19/28 93/136/28 21/34/28
f 94/137/24 92/135/24 93/136/24
f 94/137/1 91/138/1 95/133/1
f 96/139/29 100/140/29 101/141/29
f 97/142/23 57/143/23 96/139/23
f 99/144/30 56/145/30 97/142/30
f 98/146/1 57/143/1 56/145/1
f 12/20/2 30/13/2 31/14/2
f 5/22/3 23/1/3 22/3/3
f 28/24/4 27/147/4 61/25/4
f 13/21/5 31/14/5 32/15/5
f 72/28/6 77/148/6 76/29/6
f 6/23/7 22/3/7 20/7/7
f 14/27/8 32/15/8 33/16/8
f 17/33/9 35/18/9 36/19/9
f 7/31/10 20/7/10 18/8/10
f 15/32/11 33/16/11 34/17/11
f 8/35/12 18/8/12 19/9/12
f 16/36/13 34/17/13 35/18/13
f 27/38/1 77/148/1 72/39/1
f 9/37/14 19/9/14 1/10/14
f 2/42/31 26/6/31 25/5/31
f 66/44/16 28/24/16 76/45/16
f 10/41/17 1/10/17 29/12/17
f 3/43/18 25/5/18 24/4/18
f 11/47/19 29/12/19 30/13/19
f 4/48/20 24/4/20 23/1/20
f 42/49/21 41/66/21 39/50/21
f 43/52/22 45/56/22 46/53/22
f 53/55/1 55/59/1 44/54/1
f 53/55/23 46/53/23 45/56/23
f 54/57/16 45/56/16 43/52/16
f 55/59/24 58/58/24 43/52/24
f 52/60/25 47/149/25 48/61/25
f 50/63/6 53/150/6 54/64/6
f 40/51/24 39/50/24 58/58/24
f 41/66/16 54/57/16 58/58/16
f 42/49/23 53/55/23 54/57/23
f 40/51/1 55/59/1 53/55/1
f 65/71/26 64/151/26 79/72/26
f 66/74/4 67/152/4 27/75/4
f 68/77/16 76/153/16 83/78/16
f 81/80/24 84/154/24 89/81/24
f 66/74/24 68/155/24 75/83/24
f 65/71/23 70/156/23 74/85/23
f 63/87/24 73/157/24 71/88/24
f 78/73/1 60/158/1 71/90/1
f 67/92/1 75/159/1 77/93/1
f 64/95/16 74/160/16 81/96/16
f 61/98/23 72/161/23 69/99/23
f 28/76/16 62/162/16 69/100/16
f 79/101/16 81/163/16 73/102/16
f 65/104/1 78/109/1 80/105/1
f 73/107/25 81/163/25 80/91/25
f 78/109/26 79/164/26 63/110/26
f 84/111/25 85/165/25 86/112/25
f 87/114/6 88/166/6 82/79/6
f 70/116/1 80/167/1 89/117/1
f 68/118/24 82/168/24 88/119/24
f 77/121/23 87/169/23 83/122/23
f 70/124/23 86/170/23 85/125/23
f 75/127/1 88/166/1 87/128/1
f 74/130/16 85/165/16 84/131/16
f 95/133/27 91/138/27 90/134/27
f 36/19/28 94/137/28 93/136/28
f 94/137/24 95/133/24 92/135/24
f 94/137/1 36/19/1 91/138/1
f 96/139/29 57/143/29 100/140/29
f 97/142/23 56/145/23 57/143/23
f 99/144/30 98/146/30 56/145/30
f 98/146/1 100/140/1 57/143/1
