# Blender v2.79 (sub 0) OBJ File: 'ring.blend'
# www.blender.org
mtllib ring.mtl
o Circle
v 0.000000 0.000000 -2.200000
v -0.429199 0.000000 -2.157727
v -0.841904 0.000000 -2.032535
v -1.222255 0.000000 -1.829233
v -1.555635 0.000000 -1.555635
v -1.829233 0.000000 -1.222254
v -2.032535 0.000000 -0.841904
v -2.157727 0.000000 -0.429199
v -2.200000 0.000000 -0.000000
v -2.157728 0.000000 0.429199
v -2.032535 0.000000 0.841903
v -1.829233 0.000000 1.222255
v -1.555635 0.000000 1.555635
v -1.222254 0.000000 1.829233
v -0.841903 0.000000 2.032535
v -0.429198 0.000000 2.157728
v 0.000001 0.000000 2.200000
v 0.429200 0.000000 2.157728
v 0.841905 0.000000 2.032535
v 1.222256 0.000000 1.829233
v 1.555636 0.000000 1.555634
v 1.829234 0.000000 1.222253
v 2.032536 0.000000 0.841902
v 2.157728 0.000000 0.429197
v 2.200000 0.000000 -0.000002
v 2.157727 0.000000 -0.429201
v 2.032534 0.000000 -0.841906
v 1.829232 0.000000 -1.222257
v 1.555633 0.000000 -1.555637
v 1.222252 0.000000 -1.829235
v 0.841901 0.000000 -2.032536
v 0.429195 0.000000 -2.157728
v 0.000000 0.000000 -3.799999
v -0.741343 0.000000 -3.726983
v -1.454197 0.000000 -3.510741
v -2.111167 0.000000 -3.159584
v -2.687006 0.000000 -2.687005
v -3.159585 0.000000 -2.111166
v -3.510742 0.000000 -1.454196
v -3.726984 0.000000 -0.741343
v -3.800000 0.000000 0.000000
v -3.726984 0.000000 0.741343
v -3.510742 0.000000 1.454197
v -3.159585 0.000000 2.111167
v -2.687006 0.000000 2.687006
v -2.111166 0.000000 3.159585
v -1.454196 0.000000 3.510743
v -0.741342 0.000000 3.726985
v 0.000001 0.000000 3.800000
v 0.741345 0.000000 3.726984
v 1.454199 0.000000 3.510742
v 2.111169 0.000000 3.159584
v 2.687008 0.000000 2.687005
v 3.159586 0.000000 2.111165
v 3.510744 0.000000 1.454195
v 3.726985 0.000000 0.741340
v 3.800000 0.000000 -0.000003
v 3.726984 0.000000 -0.741347
v 3.510741 0.000000 -1.454200
v 3.159582 0.000000 -2.111170
v 2.687002 0.000000 -2.687008
v 2.111163 0.000000 -3.159587
v 1.454192 0.000000 -3.510744
v 0.741338 0.000000 -3.726985
vt 0.000000 1.000000
vt 1.000000 0.000000
vt 1.000000 1.000000
vt 0.000000 0.000000
vt 1.000000 1.000000
vt 0.000000 1.000000
vt 0.000000 1.000000
vt 1.000000 0.000000
vt 1.000000 1.000000
vt 0.000000 0.000000
vt 1.000000 1.000000
vt 0.000000 1.000000
vt 0.000000 1.000000
vt 1.000000 0.000000
vt 1.000000 1.000000
vt 0.000000 0.000000
vt 1.000000 1.000000
vt 0.000000 1.000000
vt 0.000000 1.000000
vt 1.000000 0.000000
vt 1.000000 1.000000
vt 0.000000 1.000000
vt 1.000000 0.000000
vt 1.000000 1.000000
vt 0.000000 0.000000
vt 1.000000 1.000000
vt 0.000000 1.000000
vt 0.000000 0.000000
vt 1.000000 1.000000
vt 0.000000 1.000000
vt 0.000000 0.000000
vt 1.000000 1.000000
vt 0.000000 1.000000
vt 0.000000 1.000000
vt 1.000000 0.000000
vt 1.000000 1.000000
vt 0.000000 0.000000
vt 1.000000 1.000000
vt 0.000000 1.000000
vt 0.000000 1.000000
vt 1.000000 0.000000
vt 1.000000 1.000000
vt 0.000000 0.000000
vt 1.000000 1.000000
vt 0.000000 1.000000
vt 0.000000 1.000000
vt 1.000000 0.000000
vt 1.000000 1.000000
vt 0.000000 0.000000
vt 1.000000 1.000000
vt 0.000000 1.000000
vt 0.000000 0.000000
vt 1.000000 1.000000
vt 0.000000 1.000000
vt 0.000000 0.000000
vt 1.000000 1.000000
vt 0.000000 1.000000
vt 0.000000 1.000000
vt 1.000000 0.000000
vt 1.000000 1.000000
vt 0.000000 0.000000
vt 1.000000 1.000000
vt 0.000000 1.000000
vt 0.000000 0.000000
vt 1.000000 1.000000
vt 0.000000 1.000000
vt 0.000000 0.000000
vt 1.000000 1.000000
vt 0.000000 1.000000
vt 0.000000 1.000000
vt 1.000000 0.000000
vt 1.000000 1.000000
vt 0.000000 0.000000
vt 1.000000 1.000000
vt 0.000000 1.000000
vt 0.000000 1.000000
vt 1.000000 0.000000
vt 1.000000 1.000000
vt 0.000000 0.000000
vt 1.000000 1.000000
vt 0.000000 1.000000
vt 0.000000 0.000000
vt 1.000000 1.000000
vt 0.000000 1.000000
vt 0.000000 0.000000
vt 1.000000 1.000000
vt 0.000000 1.000000
vt 0.000000 1.000000
vt 1.000000 0.000000
vt 1.000000 1.000000
vt 0.000000 0.000000
vt 1.000000 1.000000
vt 0.000000 1.000000
vt 0.000000 0.000000
vt 1.000000 1.000000
vt 0.000000 1.000000
vt 0.000000 0.000000
vt 1.000000 0.000000
vt 0.000000 0.000000
vt 1.000000 0.000000
vt 0.000000 0.000000
vt 1.000000 0.000000
vt 0.000000 0.000000
vt 0.000000 0.000000
vt 1.000000 0.000000
vt 1.000000 0.000000
vt 1.000000 0.000000
vt 0.000000 0.000000
vt 1.000000 0.000000
vt 0.000000 0.000000
vt 1.000000 0.000000
vt 0.000000 0.000000
vt 1.000000 0.000000
vt 1.000000 0.000000
vt 1.000000 0.000000
vt 0.000000 0.000000
vt 1.000000 0.000000
vt 1.000000 0.000000
vt 1.000000 0.000000
vt 0.000000 0.000000
vt 1.000000 0.000000
vt 0.000000 0.000000
vt 1.000000 0.000000
vt 1.000000 0.000000
vt 1.000000 0.000000
vt 0.000000 0.000000
vt 1.000000 0.000000
vt 1.000000 0.000000
vn 0.0000 1.0000 0.0000
usemtl Material.001
s off
f 4/1/1 35/2/1 36/3/1
f 30/4/1 63/5/1 31/6/1
f 18/7/1 49/8/1 50/9/1
f 4/10/1 37/11/1 5/12/1
f 32/13/1 63/14/1 64/15/1
f 18/16/1 51/17/1 19/18/1
f 6/19/1 37/20/1 38/21/1
f 1/22/1 64/23/1 33/24/1
f 19/25/1 52/26/1 20/27/1
f 6/28/1 39/29/1 7/30/1
f 20/31/1 53/32/1 21/33/1
f 8/34/1 39/35/1 40/36/1
f 21/37/1 54/38/1 22/39/1
f 9/40/1 40/41/1 41/42/1
f 22/43/1 55/44/1 23/45/1
f 10/46/1 41/47/1 42/48/1
f 23/49/1 56/50/1 24/51/1
f 10/52/1 43/53/1 11/54/1
f 24/55/1 57/56/1 25/57/1
f 12/58/1 43/59/1 44/60/1
f 25/61/1 58/62/1 26/63/1
f 12/64/1 45/65/1 13/66/1
f 26/67/1 59/68/1 27/69/1
f 14/70/1 45/71/1 46/72/1
f 27/73/1 60/74/1 28/75/1
f 15/76/1 46/77/1 47/78/1
f 1/79/1 34/80/1 2/81/1
f 28/82/1 61/83/1 29/84/1
f 15/85/1 48/86/1 16/87/1
f 3/88/1 34/89/1 35/90/1
f 29/91/1 62/92/1 30/93/1
f 16/94/1 49/95/1 17/96/1
f 4/1/1 3/97/1 35/2/1
f 30/4/1 62/98/1 63/5/1
f 18/7/1 17/99/1 49/8/1
f 4/10/1 36/100/1 37/11/1
f 32/13/1 31/101/1 63/14/1
f 18/16/1 50/102/1 51/17/1
f 6/19/1 5/103/1 37/20/1
f 1/22/1 32/104/1 64/23/1
f 19/25/1 51/105/1 52/26/1
f 6/28/1 38/106/1 39/29/1
f 20/31/1 52/107/1 53/32/1
f 8/34/1 7/108/1 39/35/1
f 21/37/1 53/109/1 54/38/1
f 9/40/1 8/110/1 40/41/1
f 22/43/1 54/111/1 55/44/1
f 10/46/1 9/112/1 41/47/1
f 23/49/1 55/113/1 56/50/1
f 10/52/1 42/114/1 43/53/1
f 24/55/1 56/115/1 57/56/1
f 12/58/1 11/116/1 43/59/1
f 25/61/1 57/117/1 58/62/1
f 12/64/1 44/118/1 45/65/1
f 26/67/1 58/119/1 59/68/1
f 14/70/1 13/120/1 45/71/1
f 27/73/1 59/121/1 60/74/1
f 15/76/1 14/122/1 46/77/1
f 1/79/1 33/123/1 34/80/1
f 28/82/1 60/124/1 61/83/1
f 15/85/1 47/125/1 48/86/1
f 3/88/1 2/126/1 34/89/1
f 29/91/1 61/127/1 62/92/1
f 16/94/1 48/128/1 49/95/1
