# Blender v2.79 (sub 0) OBJ File: 'DKSetup.blend'
# www.blender.org
mtllib Barrel.mtl
v -0.000000 1.167172 -1.167171
v -0.000000 1.167171 1.167172
v 0.227704 1.144745 -1.167171
v 0.227704 1.144745 1.167172
v 0.446657 1.078326 -1.167171
v 0.446657 1.078326 1.167172
v 0.648446 0.970468 -1.167171
v 0.648446 0.970468 1.167172
v 0.825315 0.825315 -1.167171
v 0.825315 0.825315 1.167172
v 0.970468 0.648446 -1.167171
v 0.970468 0.648446 1.167172
v 1.078326 0.446657 -1.167171
v 1.078326 0.446657 1.167172
v 1.144745 0.227704 -1.167171
v 1.144745 0.227704 1.167172
v 1.167172 0.000000 -1.167171
v 1.167171 0.000000 1.167172
v 1.144745 -0.227704 -1.167171
v 1.144745 -0.227704 1.167172
v 1.078326 -0.446657 -1.167171
v 1.078326 -0.446657 1.167172
v 0.970468 -0.648446 -1.167172
v 0.970468 -0.648446 1.167172
v 0.825315 -0.825315 -1.167172
v 0.825315 -0.825315 1.167172
v 0.648446 -0.970468 -1.167172
v 0.648446 -0.970468 1.167172
v 0.446657 -1.078326 -1.167172
v 0.446657 -1.078326 1.167172
v 0.227704 -1.144745 -1.167172
v 0.227704 -1.144745 1.167171
v -0.000000 -1.167171 -1.167172
v -0.000000 -1.167172 1.167171
v -0.227704 -1.144745 -1.167172
v -0.227704 -1.144745 1.167171
v -0.446658 -1.078326 -1.167172
v -0.446658 -1.078326 1.167171
v -0.648446 -0.970467 -1.167172
v -0.648446 -0.970468 1.167171
v -0.825315 -0.825314 -1.167172
v -0.825316 -0.825315 1.167171
v -0.970468 -0.648445 -1.167172
v -0.970468 -0.648445 1.167171
v -1.078326 -0.446656 -1.167172
v -1.078326 -0.446657 1.167171
v -1.144745 -0.227703 -1.167172
v -1.144745 -0.227703 1.167171
v -1.167171 0.000001 -1.167172
v -1.167172 0.000001 1.167171
v -1.144744 0.227705 -1.167172
v -1.144745 0.227705 1.167171
v -1.078325 0.446658 -1.167172
v -1.078326 0.446658 1.167171
v -0.970467 0.648447 -1.167172
v -0.970467 0.648447 1.167172
v -0.825314 0.825316 -1.167172
v -0.825314 0.825316 1.167172
v -0.648444 0.970469 -1.167172
v -0.648445 0.970468 1.167172
v -0.446656 1.078327 -1.167172
v -0.446656 1.078326 1.167172
v -0.227702 1.144745 -1.167171
v -0.227702 1.144745 1.167172
v -0.000000 1.225711 -0.612855
v -0.000000 1.250000 0.000000
v -0.000000 1.225711 0.612856
v 0.239124 1.202159 0.612856
v 0.243863 1.225981 0.000000
v 0.239124 1.202159 -0.612855
v 0.469059 1.132409 0.612856
v 0.478354 1.154849 0.000000
v 0.469059 1.132409 -0.612855
v 0.680969 1.019141 0.612856
v 0.694463 1.039337 0.000000
v 0.680969 1.019141 -0.612855
v 0.866709 0.866709 0.612856
v 0.883883 0.883883 0.000000
v 0.866709 0.866709 -0.612855
v 1.019141 0.680969 0.612856
v 1.039337 0.694463 0.000000
v 1.019141 0.680969 -0.612855
v 1.132409 0.469059 0.612856
v 1.154849 0.478354 0.000000
v 1.132409 0.469059 -0.612855
v 1.202159 0.239124 0.612856
v 1.225981 0.243863 0.000000
v 1.202159 0.239125 -0.612855
v 1.225711 0.000000 0.612856
v 1.250000 0.000000 0.000000
v 1.225711 0.000000 -0.612855
v 1.202159 -0.239124 0.612856
v 1.225982 -0.243863 0.000000
v 1.202159 -0.239124 -0.612855
v 1.132409 -0.469059 0.612856
v 1.154849 -0.478354 0.000000
v 1.132409 -0.469059 -0.612855
v 1.019141 -0.680969 0.612856
v 1.039337 -0.694463 0.000000
v 1.019141 -0.680969 -0.612855
v 0.866709 -0.866709 0.612856
v 0.883883 -0.883883 0.000000
v 0.866709 -0.866709 -0.612856
v 0.680969 -1.019142 0.612856
v 0.694463 -1.039337 -0.000000
v 0.680969 -1.019142 -0.612856
v 0.469059 -1.132410 0.612855
v 0.478354 -1.154850 -0.000000
v 0.469059 -1.132410 -0.612856
v 0.239124 -1.202160 0.612855
v 0.243863 -1.225982 -0.000000
v 0.239124 -1.202160 -0.612856
v -0.000000 -1.225711 0.612855
v -0.000000 -1.250000 -0.000000
v -0.000000 -1.225711 -0.612856
v -0.239125 -1.202159 0.612855
v -0.243863 -1.225981 -0.000000
v -0.239125 -1.202159 -0.612856
v -0.469060 -1.132409 0.612855
v -0.478355 -1.154849 -0.000000
v -0.469060 -1.132409 -0.612856
v -0.680969 -1.019141 0.612855
v -0.694463 -1.039337 -0.000000
v -0.680969 -1.019141 -0.612856
v -0.866709 -0.866708 0.612855
v -0.883884 -0.883883 -0.000000
v -0.866709 -0.866708 -0.612856
v -1.019142 -0.680968 0.612855
v -1.039338 -0.694462 -0.000000
v -1.019142 -0.680968 -0.612856
v -1.132410 -0.469059 0.612855
v -1.154850 -0.478354 -0.000000
v -1.132410 -0.469059 -0.612856
v -1.202160 -0.239124 0.612855
v -1.225982 -0.243862 -0.000000
v -1.202160 -0.239123 -0.612856
v -1.225711 0.000001 0.612855
v -1.250000 0.000001 -0.000000
v -1.225711 0.000001 -0.612856
v -1.202159 0.239125 0.612855
v -1.225981 0.243864 -0.000000
v -1.202159 0.239126 -0.612856
v -1.132409 0.469060 0.612855
v -1.154849 0.478355 -0.000000
v -1.132409 0.469061 -0.612856
v -1.019141 0.680970 0.612855
v -1.039336 0.694464 -0.000000
v -1.019141 0.680970 -0.612856
v -0.866708 0.866710 0.612856
v -0.883882 0.883884 -0.000000
v -0.866708 0.866710 -0.612856
v -0.680967 1.019142 0.612856
v -0.694462 1.039338 0.000000
v -0.680967 1.019142 -0.612856
v -0.469058 1.132410 0.612856
v -0.478353 1.154850 0.000000
v -0.469058 1.132410 -0.612855
v -0.239123 1.202160 0.612856
v -0.243861 1.225982 0.000000
v -0.239123 1.202160 -0.612855
vt 0.994331 0.315156
vt 0.966282 0.238361
vt 0.998662 0.239349
vt 0.963183 0.313626
vt 0.934313 0.237670
vt 0.932065 0.312495
vt 0.902643 0.237175
vt 0.900990 0.311650
vt 0.871193 0.236815
vt 0.869959 0.311012
vt 0.839908 0.236547
vt 0.838971 0.310523
vt 0.808745 0.236341
vt 0.808021 0.310143
vt 0.777676 0.236179
vt 0.777104 0.309844
vt 0.746676 0.236047
vt 0.715351 0.309409
vt 0.715730 0.235936
vt 0.684824 0.235840
vt 0.684505 0.309246
vt 0.653949 0.235754
vt 0.653675 0.309108
vt 0.623097 0.235676
vt 0.622858 0.308989
vt 0.592262 0.235604
vt 0.592052 0.308885
vt 0.561440 0.235538
vt 0.561255 0.308794
vt 0.530627 0.235478
vt 0.530465 0.308714
vt 0.499821 0.235424
vt 0.499681 0.308644
vt 0.469018 0.235377
vt 0.468904 0.308585
vt 0.438217 0.235339
vt 0.438133 0.308536
vt 0.407414 0.235313
vt 0.407368 0.308501
vt 0.376608 0.235300
vt 0.376609 0.308482
vt 0.345796 0.235308
vt 0.345858 0.308485
vt 0.314973 0.235340
vt 0.315115 0.308515
vt 0.284134 0.235405
vt 0.284382 0.308581
vt 0.253273 0.235513
vt 0.253662 0.308695
vt 0.222380 0.235678
vt 0.222956 0.308874
vt 0.191442 0.235919
vt 0.192267 0.309139
vt 0.160442 0.236258
vt 0.161598 0.309521
vt 0.129354 0.236728
vt 0.100333 0.310809
vt 0.098144 0.237371
vt 0.066766 0.238243
vt 0.357406 0.583940
vt 0.336356 0.370206
vt 0.550090 0.349156
vt 0.069744 0.311841
vt 0.035157 0.239421
vt 0.039189 0.313254
vt 0.003252 0.240990
vt 0.054908 0.583941
vt 0.033856 0.370207
vt 0.247590 0.349155
vt 0.033718 0.076938
vt 0.005669 0.000143
vt 0.036817 0.001673
vt 0.032830 0.158479
vt 0.001338 0.075950
vt 0.000117 0.158836
vt 0.065687 0.077630
vt 0.067935 0.002804
vt 0.065045 0.158186
vt 0.097357 0.078124
vt 0.099011 0.003649
vt 0.096881 0.157956
vt 0.128807 0.078484
vt 0.130041 0.004288
vt 0.128439 0.157779
vt 0.160092 0.078753
vt 0.161029 0.004777
vt 0.159794 0.157649
vt 0.191255 0.078958
vt 0.191979 0.005156
vt 0.190999 0.157556
vt 0.222324 0.079120
vt 0.222895 0.005455
vt 0.222094 0.157495
vt 0.253323 0.079252
vt 0.253784 0.005695
vt 0.253108 0.157459
vt 0.284270 0.079364
vt 0.284649 0.005891
vt 0.284061 0.157445
vt 0.315175 0.079460
vt 0.315494 0.006054
vt 0.314971 0.157448
vt 0.346051 0.079546
vt 0.346324 0.006192
vt 0.345848 0.157463
vt 0.376903 0.079624
vt 0.377141 0.006311
vt 0.376702 0.157490
vt 0.407738 0.079695
vt 0.407948 0.006414
vt 0.407539 0.157523
vt 0.438560 0.079761
vt 0.438745 0.006505
vt 0.438365 0.157563
vt 0.469372 0.079822
vt 0.469535 0.006586
vt 0.469184 0.157605
vt 0.500179 0.079876
vt 0.500318 0.006656
vt 0.500000 0.157650
vt 0.530981 0.079923
vt 0.531095 0.006715
vt 0.530815 0.157694
vt 0.561783 0.079961
vt 0.561866 0.006764
vt 0.561634 0.157737
vt 0.592585 0.079987
vt 0.592632 0.006799
vt 0.592460 0.157776
vt 0.623391 0.079999
vt 0.623390 0.006817
vt 0.623297 0.157810
vt 0.654203 0.079992
vt 0.654141 0.006815
vt 0.654151 0.157836
vt 0.685026 0.079960
vt 0.684884 0.006785
vt 0.685029 0.157852
vt 0.715865 0.079895
vt 0.715617 0.006719
vt 0.715938 0.157855
vt 0.746726 0.079786
vt 0.746337 0.006604
vt 0.746892 0.157840
vt 0.777619 0.079621
vt 0.777043 0.006425
vt 0.777905 0.157805
vt 0.808557 0.079381
vt 0.807732 0.006160
vt 0.809000 0.157744
vt 0.839558 0.079041
vt 0.838401 0.005778
vt 0.840205 0.157651
vt 0.869047 0.005240
vt 0.871560 0.157520
vt 0.870646 0.078571
vt 0.899666 0.004490
vt 0.903118 0.157343
vt 0.901855 0.077928
vt 0.933233 0.077055
vt 0.930255 0.003458
vt 0.934955 0.157113
vt 0.964843 0.075878
vt 0.960810 0.002045
vt 0.967170 0.156819
vt 0.996747 0.074309
vt 0.991286 0.000117
vt 0.999883 0.156463
vt 0.746216 0.309604
vt 0.130952 0.310060
vt 0.571141 0.370207
vt 0.604881 0.451663
vt 0.587680 0.394960
vt 0.599073 0.422464
vt 0.604881 0.481433
vt 0.599073 0.510631
vt 0.587681 0.538136
vt 0.571141 0.562889
vt 0.550090 0.583940
vt 0.525337 0.600480
vt 0.497832 0.611872
vt 0.468633 0.617681
vt 0.438863 0.617681
vt 0.409664 0.611873
vt 0.382160 0.600480
vt 0.336355 0.562889
vt 0.319815 0.538136
vt 0.308423 0.510632
vt 0.302615 0.481433
vt 0.302615 0.451662
vt 0.308423 0.422464
vt 0.319816 0.394960
vt 0.357406 0.349155
vt 0.382160 0.332616
vt 0.409664 0.321223
vt 0.438863 0.315415
vt 0.468633 0.315415
vt 0.497832 0.321223
vt 0.525336 0.332616
vt 0.008713 0.315182
vt 0.268641 0.370206
vt 0.285181 0.394959
vt 0.296574 0.422464
vt 0.302382 0.451663
vt 0.302382 0.481433
vt 0.268642 0.562890
vt 0.296574 0.510632
vt 0.285181 0.538136
vt 0.247591 0.583941
vt 0.166134 0.617681
vt 0.222837 0.600480
vt 0.195333 0.611873
vt 0.136364 0.617681
vt 0.107165 0.611873
vt 0.079661 0.600480
vt 0.033857 0.562890
vt 0.017317 0.538137
vt 0.005925 0.510632
vt 0.000117 0.481434
vt 0.000117 0.451663
vt 0.005924 0.422465
vt 0.017317 0.394960
vt 0.054907 0.349156
vt 0.079660 0.332616
vt 0.107165 0.321223
vt 0.136363 0.315415
vt 0.166133 0.315415
vt 0.195332 0.321223
vt 0.222837 0.332616
vn 0.0975 0.9897 0.1045
vn 0.2887 0.9517 0.1045
vn 0.4688 0.8771 0.1045
vn 0.6309 0.7688 0.1045
vn 0.7688 0.6309 0.1045
vn 0.8771 0.4688 0.1045
vn 0.9517 0.2887 0.1045
vn 0.9897 0.0975 0.1045
vn 0.9897 -0.0975 0.1045
vn 0.9517 -0.2887 0.1045
vn 0.8771 -0.4688 0.1045
vn 0.7688 -0.6309 0.1045
vn 0.6309 -0.7688 0.1045
vn 0.4688 -0.8771 0.1045
vn 0.2887 -0.9517 0.1045
vn 0.0975 -0.9897 0.1045
vn -0.0975 -0.9897 0.1045
vn -0.2887 -0.9517 0.1045
vn -0.4688 -0.8771 0.1045
vn -0.6309 -0.7688 0.1045
vn -0.7688 -0.6309 0.1045
vn -0.8771 -0.4688 0.1045
vn -0.9517 -0.2887 0.1045
vn -0.9897 -0.0975 0.1045
vn -0.9897 0.0975 0.1045
vn -0.9517 0.2887 0.1045
vn -0.8771 0.4688 0.1045
vn -0.7688 0.6309 0.1045
vn -0.6309 0.7688 0.1045
vn -0.4688 0.8771 0.1045
vn -0.0000 -0.0000 1.0000
vn -0.2887 0.9517 0.1045
vn -0.0975 0.9897 0.1045
vn 0.0000 0.0000 -1.0000
vn -0.0975 0.9897 -0.1045
vn -0.0979 0.9944 -0.0394
vn -0.0979 0.9944 0.0394
vn -0.2887 0.9517 -0.1045
vn -0.2901 0.9562 -0.0394
vn -0.2901 0.9562 0.0394
vn -0.4688 0.8771 -0.1045
vn -0.4710 0.8812 -0.0394
vn -0.4710 0.8812 0.0394
vn -0.6309 0.7688 -0.1045
vn -0.6339 0.7724 -0.0394
vn -0.6339 0.7724 0.0394
vn -0.7688 0.6309 -0.1045
vn -0.7724 0.6339 -0.0394
vn -0.7724 0.6339 0.0394
vn -0.8771 0.4688 -0.1045
vn -0.8812 0.4710 -0.0394
vn -0.8812 0.4710 0.0394
vn -0.9517 0.2887 -0.1045
vn -0.9562 0.2901 -0.0394
vn -0.9562 0.2901 0.0394
vn -0.9897 0.0975 -0.1045
vn -0.9944 0.0979 -0.0394
vn -0.9944 0.0979 0.0394
vn -0.9897 -0.0975 -0.1045
vn -0.9944 -0.0979 -0.0394
vn -0.9944 -0.0979 0.0394
vn -0.9517 -0.2887 -0.1045
vn -0.9562 -0.2901 -0.0394
vn -0.9562 -0.2901 0.0394
vn -0.8771 -0.4688 -0.1045
vn -0.8812 -0.4710 -0.0394
vn -0.8812 -0.4710 0.0394
vn -0.7688 -0.6309 -0.1045
vn -0.7724 -0.6339 -0.0394
vn -0.7724 -0.6339 0.0394
vn -0.6309 -0.7688 -0.1045
vn -0.6339 -0.7724 -0.0394
vn -0.6339 -0.7724 0.0394
vn -0.4688 -0.8771 -0.1045
vn -0.4710 -0.8812 -0.0394
vn -0.4710 -0.8812 0.0394
vn -0.2887 -0.9517 -0.1045
vn -0.2901 -0.9562 -0.0394
vn -0.2901 -0.9562 0.0394
vn -0.0975 -0.9897 -0.1045
vn -0.0979 -0.9944 -0.0394
vn -0.0979 -0.9944 0.0394
vn 0.0975 -0.9897 -0.1045
vn 0.0979 -0.9944 -0.0394
vn 0.0979 -0.9944 0.0394
vn 0.2887 -0.9517 -0.1045
vn 0.2901 -0.9562 -0.0394
vn 0.2901 -0.9562 0.0394
vn 0.4688 -0.8771 -0.1045
vn 0.4710 -0.8812 -0.0394
vn 0.4710 -0.8812 0.0394
vn 0.6309 -0.7688 -0.1045
vn 0.6339 -0.7724 -0.0394
vn 0.6339 -0.7724 0.0394
vn 0.7688 -0.6309 -0.1045
vn 0.7724 -0.6339 -0.0394
vn 0.7724 -0.6339 0.0394
vn 0.8771 -0.4688 -0.1045
vn 0.8812 -0.4710 -0.0394
vn 0.8812 -0.4710 0.0394
vn 0.9517 -0.2887 -0.1045
vn 0.9562 -0.2901 -0.0394
vn 0.9562 -0.2901 0.0394
vn 0.9897 -0.0975 -0.1045
vn 0.9944 -0.0979 -0.0394
vn 0.9944 -0.0979 0.0394
vn 0.9897 0.0975 -0.1045
vn 0.9944 0.0979 -0.0394
vn 0.9944 0.0979 0.0394
vn 0.9517 0.2887 -0.1045
vn 0.9562 0.2901 -0.0394
vn 0.9562 0.2901 0.0394
vn 0.8771 0.4688 -0.1045
vn 0.8812 0.4710 -0.0394
vn 0.8812 0.4710 0.0394
vn 0.7688 0.6309 -0.1045
vn 0.7724 0.6339 -0.0394
vn 0.7724 0.6339 0.0394
vn 0.6309 0.7688 -0.1045
vn 0.6339 0.7724 -0.0394
vn 0.6339 0.7724 0.0394
vn 0.4688 0.8771 -0.1045
vn 0.4710 0.8812 -0.0394
vn 0.4710 0.8812 0.0394
vn 0.2887 0.9517 -0.1045
vn 0.2901 0.9562 -0.0394
vn 0.2901 0.9562 0.0394
vn 0.0975 0.9897 -0.1045
vn 0.0979 0.9944 -0.0394
vn 0.0979 0.9944 0.0394
usemtl None
s off
f 2/1/1 68/2/1 67/3/1
f 4/4/2 71/5/2 68/2/2
f 6/6/3 74/7/3 71/5/3
f 8/8/4 77/9/4 74/7/4
f 10/10/5 80/11/5 77/9/5
f 12/12/6 83/13/6 80/11/6
f 14/14/7 86/15/7 83/13/7
f 16/16/8 89/17/8 86/15/8
f 89/17/9 20/18/9 92/19/9
f 20/18/10 95/20/10 92/19/10
f 22/21/11 98/22/11 95/20/11
f 24/23/12 101/24/12 98/22/12
f 26/25/13 104/26/13 101/24/13
f 28/27/14 107/28/14 104/26/14
f 30/29/15 110/30/15 107/28/15
f 32/31/16 113/32/16 110/30/16
f 34/33/17 116/34/17 113/32/17
f 36/35/18 119/36/18 116/34/18
f 38/37/19 122/38/19 119/36/19
f 40/39/20 125/40/20 122/38/20
f 42/41/21 128/42/21 125/40/21
f 44/43/22 131/44/22 128/42/22
f 46/45/23 134/46/23 131/44/23
f 48/47/24 137/48/24 134/46/24
f 50/49/25 140/50/25 137/48/25
f 52/51/26 143/52/26 140/50/26
f 54/53/27 146/54/27 143/52/27
f 56/55/28 149/56/28 146/54/28
f 149/56/29 60/57/29 152/58/29
f 60/57/30 155/59/30 152/58/30
f 38/60/31 22/61/31 6/62/31
f 62/63/32 158/64/32 155/59/32
f 64/65/33 67/66/33 158/64/33
f 31/67/34 47/68/34 63/69/34
f 160/70/35 1/71/35 63/72/35
f 159/73/36 65/74/36 160/70/36
f 158/64/37 66/75/37 159/73/37
f 157/76/38 63/72/38 61/77/38
f 156/78/39 160/70/39 157/76/39
f 155/59/40 159/73/40 156/78/40
f 154/79/41 61/77/41 59/80/41
f 153/81/42 157/76/42 154/79/42
f 152/58/43 156/78/43 153/81/43
f 151/82/44 59/80/44 57/83/44
f 150/84/45 154/79/45 151/82/45
f 150/84/46 152/58/46 153/81/46
f 148/85/47 57/83/47 55/86/47
f 148/85/48 150/84/48 151/82/48
f 146/54/49 150/84/49 147/87/49
f 145/88/50 55/86/50 53/89/50
f 144/90/51 148/85/51 145/88/51
f 143/52/52 147/87/52 144/90/52
f 142/91/53 53/89/53 51/92/53
f 141/93/54 145/88/54 142/91/54
f 140/50/55 144/90/55 141/93/55
f 139/94/56 51/92/56 49/95/56
f 138/96/57 142/91/57 139/94/57
f 137/48/58 141/93/58 138/96/58
f 136/97/59 49/95/59 47/98/59
f 135/99/60 139/94/60 136/97/60
f 134/46/61 138/96/61 135/99/61
f 133/100/62 47/98/62 45/101/62
f 132/102/63 136/97/63 133/100/63
f 132/102/64 134/46/64 135/99/64
f 130/103/65 45/101/65 43/104/65
f 129/105/66 133/100/66 130/103/66
f 128/42/67 132/102/67 129/105/67
f 127/106/68 43/104/68 41/107/68
f 126/108/69 130/103/69 127/106/69
f 125/40/70 129/105/70 126/108/70
f 124/109/71 41/107/71 39/110/71
f 123/111/72 127/106/72 124/109/72
f 123/111/73 125/40/73 126/108/73
f 121/112/74 39/110/74 37/113/74
f 120/114/75 124/109/75 121/112/75
f 119/36/76 123/111/76 120/114/76
f 118/115/77 37/113/77 35/116/77
f 117/117/78 121/112/78 118/115/78
f 116/34/79 120/114/79 117/117/79
f 115/118/80 35/116/80 33/119/80
f 114/120/81 118/115/81 115/118/81
f 113/32/82 117/117/82 114/120/82
f 112/121/83 33/119/83 31/122/83
f 111/123/84 115/118/84 112/121/84
f 110/30/85 114/120/85 111/123/85
f 109/124/86 31/122/86 29/125/86
f 108/126/87 112/121/87 109/124/87
f 107/28/88 111/123/88 108/126/88
f 106/127/89 29/125/89 27/128/89
f 106/127/90 108/126/90 109/124/90
f 104/26/91 108/126/91 105/129/91
f 103/130/92 27/128/92 25/131/92
f 102/132/93 106/127/93 103/130/93
f 101/24/94 105/129/94 102/132/94
f 100/133/95 25/131/95 23/134/95
f 99/135/96 103/130/96 100/133/96
f 98/22/97 102/132/97 99/135/97
f 97/136/98 23/134/98 21/137/98
f 96/138/99 100/133/99 97/136/99
f 96/138/100 98/22/100 99/135/100
f 94/139/101 21/137/101 19/140/101
f 94/139/102 96/138/102 97/136/102
f 92/19/103 96/138/103 93/141/103
f 91/142/104 19/140/104 17/143/104
f 90/144/105 94/139/105 91/142/105
f 89/17/106 93/141/106 90/144/106
f 88/145/107 17/143/107 15/146/107
f 87/147/108 91/142/108 88/145/108
f 86/15/109 90/144/109 87/147/109
f 85/148/110 15/146/110 13/149/110
f 84/150/111 88/145/111 85/148/111
f 83/13/112 87/147/112 84/150/112
f 82/151/113 13/149/113 11/152/113
f 81/153/114 85/148/114 82/151/114
f 80/11/115 84/150/115 81/153/115
f 9/154/116 82/151/116 11/152/116
f 78/155/117 82/151/117 79/156/117
f 77/9/118 81/153/118 78/155/118
f 7/157/119 79/156/119 9/154/119
f 75/158/120 79/156/120 76/159/120
f 74/7/121 78/155/121 75/158/121
f 73/160/122 7/157/122 5/161/122
f 72/162/123 76/159/123 73/160/123
f 71/5/124 75/158/124 72/162/124
f 70/163/125 5/161/125 3/164/125
f 69/165/126 73/160/126 70/163/126
f 68/2/127 72/162/127 69/165/127
f 65/166/128 3/164/128 1/167/128
f 66/168/129 70/163/129 65/166/129
f 67/3/130 69/165/130 66/168/130
f 2/1/1 4/4/1 68/2/1
f 4/4/2 6/6/2 71/5/2
f 6/6/3 8/8/3 74/7/3
f 8/8/4 10/10/4 77/9/4
f 10/10/5 12/12/5 80/11/5
f 12/12/6 14/14/6 83/13/6
f 14/14/7 16/16/7 86/15/7
f 16/16/8 18/169/8 89/17/8
f 89/17/9 18/169/9 20/18/9
f 20/18/10 22/21/10 95/20/10
f 22/21/11 24/23/11 98/22/11
f 24/23/12 26/25/12 101/24/12
f 26/25/13 28/27/13 104/26/13
f 28/27/14 30/29/14 107/28/14
f 30/29/15 32/31/15 110/30/15
f 32/31/16 34/33/16 113/32/16
f 34/33/17 36/35/17 116/34/17
f 36/35/18 38/37/18 119/36/18
f 38/37/19 40/39/19 122/38/19
f 40/39/20 42/41/20 125/40/20
f 42/41/21 44/43/21 128/42/21
f 44/43/22 46/45/22 131/44/22
f 46/45/23 48/47/23 134/46/23
f 48/47/24 50/49/24 137/48/24
f 50/49/25 52/51/25 140/50/25
f 52/51/26 54/53/26 143/52/26
f 54/53/27 56/55/27 146/54/27
f 56/55/28 58/170/28 149/56/28
f 149/56/29 58/170/29 60/57/29
f 60/57/30 62/63/30 155/59/30
f 6/62/31 4/171/31 62/172/31
f 4/171/31 2/173/31 62/172/31
f 2/173/31 64/174/31 62/172/31
f 62/172/31 60/175/31 58/176/31
f 58/176/31 56/177/31 54/178/31
f 54/178/31 52/179/31 50/180/31
f 50/180/31 48/181/31 54/178/31
f 48/181/31 46/182/31 54/178/31
f 46/182/31 44/183/31 42/184/31
f 42/184/31 40/185/31 38/60/31
f 38/60/31 36/186/31 34/187/31
f 34/187/31 32/188/31 38/60/31
f 32/188/31 30/189/31 38/60/31
f 30/189/31 28/190/31 26/191/31
f 26/191/31 24/192/31 30/189/31
f 24/192/31 22/61/31 30/189/31
f 22/61/31 20/193/31 18/194/31
f 18/194/31 16/195/31 14/196/31
f 14/196/31 12/197/31 6/62/31
f 12/197/31 10/198/31 6/62/31
f 10/198/31 8/199/31 6/62/31
f 62/172/31 58/176/31 6/62/31
f 58/176/31 54/178/31 6/62/31
f 46/182/31 42/184/31 38/60/31
f 22/61/31 18/194/31 14/196/31
f 54/178/31 46/182/31 6/62/31
f 46/182/31 38/60/31 6/62/31
f 38/60/31 30/189/31 22/61/31
f 22/61/31 14/196/31 6/62/31
f 62/63/32 64/65/32 158/64/32
f 64/65/33 2/200/33 67/66/33
f 63/69/34 1/201/34 3/202/34
f 3/202/34 5/203/34 7/204/34
f 7/204/34 9/205/34 15/206/34
f 9/205/34 11/207/34 15/206/34
f 11/207/34 13/208/34 15/206/34
f 15/206/34 17/209/34 23/210/34
f 17/209/34 19/211/34 23/210/34
f 19/211/34 21/212/34 23/210/34
f 23/210/34 25/213/34 27/214/34
f 27/214/34 29/215/34 23/210/34
f 29/215/34 31/67/34 23/210/34
f 31/67/34 33/216/34 35/217/34
f 35/217/34 37/218/34 39/219/34
f 39/219/34 41/220/34 43/221/34
f 43/221/34 45/222/34 39/219/34
f 45/222/34 47/68/34 39/219/34
f 47/68/34 49/223/34 51/224/34
f 51/224/34 53/225/34 47/68/34
f 53/225/34 55/226/34 47/68/34
f 55/226/34 57/227/34 59/228/34
f 59/228/34 61/229/34 63/69/34
f 63/69/34 3/202/34 15/206/34
f 3/202/34 7/204/34 15/206/34
f 31/67/34 35/217/34 47/68/34
f 35/217/34 39/219/34 47/68/34
f 55/226/34 59/228/34 47/68/34
f 59/228/34 63/69/34 47/68/34
f 15/206/34 23/210/34 63/69/34
f 23/210/34 31/67/34 63/69/34
f 160/70/35 65/74/35 1/71/35
f 159/73/36 66/75/36 65/74/36
f 158/64/37 67/66/37 66/75/37
f 157/76/38 160/70/38 63/72/38
f 156/78/39 159/73/39 160/70/39
f 155/59/40 158/64/40 159/73/40
f 154/79/41 157/76/41 61/77/41
f 153/81/42 156/78/42 157/76/42
f 152/58/43 155/59/43 156/78/43
f 151/82/44 154/79/44 59/80/44
f 150/84/45 153/81/45 154/79/45
f 150/84/46 149/56/46 152/58/46
f 148/85/47 151/82/47 57/83/47
f 148/85/48 147/87/48 150/84/48
f 146/54/49 149/56/49 150/84/49
f 145/88/50 148/85/50 55/86/50
f 144/90/51 147/87/51 148/85/51
f 143/52/52 146/54/52 147/87/52
f 142/91/53 145/88/53 53/89/53
f 141/93/54 144/90/54 145/88/54
f 140/50/55 143/52/55 144/90/55
f 139/94/56 142/91/56 51/92/56
f 138/96/57 141/93/57 142/91/57
f 137/48/58 140/50/58 141/93/58
f 136/97/59 139/94/59 49/95/59
f 135/99/60 138/96/60 139/94/60
f 134/46/61 137/48/61 138/96/61
f 133/100/62 136/97/62 47/98/62
f 132/102/63 135/99/63 136/97/63
f 132/102/64 131/44/64 134/46/64
f 130/103/65 133/100/65 45/101/65
f 129/105/66 132/102/66 133/100/66
f 128/42/67 131/44/67 132/102/67
f 127/106/68 130/103/68 43/104/68
f 126/108/69 129/105/69 130/103/69
f 125/40/70 128/42/70 129/105/70
f 124/109/71 127/106/71 41/107/71
f 123/111/72 126/108/72 127/106/72
f 123/111/73 122/38/73 125/40/73
f 121/112/74 124/109/74 39/110/74
f 120/114/75 123/111/75 124/109/75
f 119/36/76 122/38/76 123/111/76
f 118/115/77 121/112/77 37/113/77
f 117/117/78 120/114/78 121/112/78
f 116/34/79 119/36/79 120/114/79
f 115/118/80 118/115/80 35/116/80
f 114/120/81 117/117/81 118/115/81
f 113/32/82 116/34/82 117/117/82
f 112/121/83 115/118/83 33/119/83
f 111/123/84 114/120/84 115/118/84
f 110/30/85 113/32/85 114/120/85
f 109/124/86 112/121/86 31/122/86
f 108/126/87 111/123/87 112/121/87
f 107/28/88 110/30/88 111/123/88
f 106/127/89 109/124/89 29/125/89
f 106/127/90 105/129/90 108/126/90
f 104/26/91 107/28/91 108/126/91
f 103/130/92 106/127/92 27/128/92
f 102/132/93 105/129/93 106/127/93
f 101/24/94 104/26/94 105/129/94
f 100/133/95 103/130/95 25/131/95
f 99/135/96 102/132/96 103/130/96
f 98/22/97 101/24/97 102/132/97
f 97/136/98 100/133/98 23/134/98
f 96/138/99 99/135/99 100/133/99
f 96/138/100 95/20/100 98/22/100
f 94/139/101 97/136/101 21/137/101
f 94/139/102 93/141/102 96/138/102
f 92/19/103 95/20/103 96/138/103
f 91/142/104 94/139/104 19/140/104
f 90/144/105 93/141/105 94/139/105
f 89/17/106 92/19/106 93/141/106
f 88/145/107 91/142/107 17/143/107
f 87/147/108 90/144/108 91/142/108
f 86/15/109 89/17/109 90/144/109
f 85/148/110 88/145/110 15/146/110
f 84/150/111 87/147/111 88/145/111
f 83/13/112 86/15/112 87/147/112
f 82/151/113 85/148/113 13/149/113
f 81/153/114 84/150/114 85/148/114
f 80/11/115 83/13/115 84/150/115
f 9/154/116 79/156/116 82/151/116
f 78/155/117 81/153/117 82/151/117
f 77/9/118 80/11/118 81/153/118
f 7/157/119 76/159/119 79/156/119
f 75/158/120 78/155/120 79/156/120
f 74/7/121 77/9/121 78/155/121
f 73/160/122 76/159/122 7/157/122
f 72/162/123 75/158/123 76/159/123
f 71/5/124 74/7/124 75/158/124
f 70/163/125 73/160/125 5/161/125
f 69/165/126 72/162/126 73/160/126
f 68/2/127 71/5/127 72/162/127
f 65/166/128 70/163/128 3/164/128
f 66/168/129 69/165/129 70/163/129
f 67/3/130 68/2/130 69/165/130
